<?xml version="1.0" encoding="UTF-8"?>
<svg id="Layer_2" data-name="Layer 2" xmlns="http://www.w3.org/2000/svg" xmlns:xlink="http://www.w3.org/1999/xlink" viewBox="0 0 2245.6 693.76">
  <defs>
    <style>
      .cls-1 {
        fill: url(#linear-gradient);
      }

      .cls-2 {
        fill: #fff;
      }
    </style>
    <linearGradient id="linear-gradient" x1="146.17" y1="176.02" x2="521.26" y2="551.12" gradientUnits="userSpaceOnUse">
      <stop offset="0" stop-color="#51087e"/>
      <stop offset="1" stop-color="#a007dc"/>
    </linearGradient>
  </defs>
  <g id="Layer_1-2" data-name="Layer 1">
    <g>
      <circle class="cls-2" cx="346.88" cy="346.88" r="346.88"/>
      <path class="cls-1" d="M329.51,132.8c-.78,8.53-36.49,40.02-44.04,40.63-11.55.94-37.72-36.75-47.8-44.49l46.25-45.71c3.55-.62,42.11,42.34,45.59,49.57ZM378.84,120.39c-4.15-.89-4.47,2.11-6.22,4.55-26.64,37.05-51.96,63.33-102.46,58.01-34.05-3.59-58.87-28.04-86.32-44.6-7.94,7.79-38.85,41.55-36.34,51.3,35.24,37.97,100.11,57.57,150.45,45.13,46.86-11.59,85.32-66.16,80.89-114.39ZM287.58,395.17c14.35,2.12,33.19-1.56,48.09,0-4.32,17.23-13.07,31.42-15.7,50.06-13.29,94.47,60.79,165.11,154.6,133.01,77.72-26.6,121-125.94,116.22-203.66-.13-2.1-1.1-14.57-4.85-12.76-4.59,2.23-19.25,55.38-23.1,65.24-9.98,25.58-22.73,52.02-47.21,66.63-39.96,23.85-132.25,29.96-147.67-25.81-9.45-34.17,7.6-65.64,43.77-70.24,12.9-1.64,23.48,1.66,35.8.47,16.98-22.18,27.3-47.34,33.4-74.55-31.11-3.15-67.99,7.91-93.34-16.63-12.18-11.78-14.63-22-4.48-36.05,28.72-39.74,93.72,3.19,127.2,16.33l33.04-57.93c-.17-2.17-25.18-19.06-29.24-21.41-37.51-21.63-105.23-38.37-142.1-8.94-51.88,41.41-32.8,125.84,20.52,155.99-61.98,39.84-74.75-12.7-100.44-54.57-26.56-43.28-49.15-59.72-102.64-54.34-31.61,3.19-61.95,42.56-73.16,70.12-31.7,77.93-12.18,234.26,98.73,228.27,60-3.24,82.13-64.8,77.53-116.94-.55-6.21-1.98-15.25-7.91-18.57.25,20.53-20.22,47.74-39.29,53.96-50.41,16.44-105.08-30.85-109.88-80.47-2.14-22.18.45-77.51,25.52-86.32,68.35-24.02,79.17,92.09,126.57,99.09Z"/>
      <g>
        <path class="cls-2" d="M946.07,138.13c0,35.11-23.41,62.69-62.97,62.69h-39.57v64.64h-26.75V78.23h57.96c48.76,0,71.33,24.52,71.33,59.9ZM919.33,139.81c0-24.52-18.11-34.83-37.62-34.83h-38.17v69.1h39.84c19.5,0,35.94-10.03,35.94-34.27Z"/>
        <path class="cls-2" d="M1096.81,210.86h-101.14c4.18,20.9,22.29,30.09,43.47,30.09,15.88,0,30.09-5.85,40.68-13.37l8.92,23.96c-3.62,3.06-21.17,16.16-50.15,16.16-46.81,0-70.21-31.48-70.21-69.1s25.63-69.1,66.59-69.1c35.39,0,62.69,26.19,62.69,69.66,0,2.79-.28,8.08-.83,11.7ZM1070.34,186.34c-.56-13.1-11.15-30.09-36.5-30.09s-37.61,17-38.17,30.09h74.67Z"/>
        <path class="cls-2" d="M1204.64,129.5v29.26c-6.41-1.95-16.16-1.95-24.52,1.11-17.55,6.69-28.98,21.45-28.98,45.97v59.63h-26.75v-133.74h26.75v28.7c9.2-19.23,28.42-30.93,53.5-30.93Z"/>
        <path class="cls-2" d="M1333.93,223.67c0,26.47-18.67,44.02-53.5,44.02-29.54,0-51.83-13.1-57.96-18.95l10.59-26.19c10.59,10.59,31.49,18.11,46.53,18.39,17.27.28,27.58-6.13,27.58-14.21,0-10.03-9.75-13.93-26.19-17-43.74-7.8-54.05-20.62-54.05-42.07s21.45-38.17,54.33-38.17c11.98,0,30.37,3.06,48.48,12.82l-9.2,25.08c-6.13-4.46-22.85-10.87-39.29-11.15-13.09-.28-27.58,2.51-27.58,11.7,0,10.03,15.88,11.98,31.48,15.05,39.29,7.52,48.76,24.24,48.76,40.68Z"/>
        <path class="cls-2" d="M1501.11,198.6c0,38.17-27.86,69.1-66.87,69.1-18.11,0-33.71-7.52-44.58-21.73v90.83h-26.75v-205.07h26.75v19.5c10.87-14.21,26.47-21.73,44.58-21.73,39.01,0,66.87,30.93,66.87,69.1ZM1474.36,198.6c0-23.4-18.95-42.35-42.35-42.35s-42.35,18.95-42.35,42.35,18.95,42.35,42.35,42.35,42.35-18.95,42.35-42.35Z"/>
        <path class="cls-2" d="M1651.85,210.86h-101.14c4.18,20.9,22.29,30.09,43.47,30.09,15.88,0,30.09-5.85,40.68-13.37l8.92,23.96c-3.62,3.06-21.18,16.16-50.15,16.16-46.81,0-70.21-31.48-70.21-69.1s25.63-69.1,66.59-69.1c35.39,0,62.69,26.19,62.69,69.66,0,2.79-.28,8.08-.84,11.7ZM1625.38,186.34c-.56-13.1-11.15-30.09-36.5-30.09s-37.61,17-38.17,30.09h74.67Z"/>
        <path class="cls-2" d="M1746.3,129.5c16.16,0,32.88,4.74,44.58,15.32l-11.42,24.8c-8.36-8.08-20.06-13.37-32.88-13.37-24.8,0-44.86,19.23-44.86,42.07s20.06,42.63,44.86,42.63c12.82,0,24.52-5.29,32.88-13.65l11.42,25.08c-10.59,10.03-28.42,15.32-44.58,15.32-44.86,0-71.33-30.93-71.33-69.1s27.03-69.1,71.33-69.1Z"/>
        <path class="cls-2" d="M1831,158.47h-17.83v-26.75h17.83v-53.5h26.75v53.5h26.75v26.75h-26.75v55.73c0,9.47,0,19.23,5.29,23.13,6.41,4.74,15.33,2.51,21.45-.56v27.03c-5.85,2.79-12.26,3.9-19.78,3.9-25.35,0-33.71-20.34-33.71-45.97v-63.25Z"/>
        <path class="cls-2" d="M1913.47,89.37c0-11.15,8.92-20.06,20.06-20.06s20.06,8.92,20.06,20.06-8.92,20.06-20.06,20.06-20.06-8.92-20.06-20.06ZM1920.16,131.73h26.75v133.74h-26.75v-133.74Z"/>
        <path class="cls-2" d="M1966.97,131.73h28.98l35.66,78.02,35.66-78.02h28.98l-64.64,138.2-64.64-138.2Z"/>
        <path class="cls-2" d="M2245.6,131.73v133.74h-26.75v-19.5c-10.87,14.21-26.47,21.73-44.58,21.73-39.01,0-66.87-30.93-66.87-69.1s27.86-69.1,66.87-69.1c18.11,0,33.71,7.52,44.58,21.73v-19.5h26.75ZM2218.85,198.6c0-23.4-18.95-42.35-42.35-42.35s-42.35,18.95-42.35,42.35,18.95,42.35,42.35,42.35,42.35-18.95,42.35-42.35Z"/>
        <path class="cls-2" d="M900.61,409.99v33.51h87.12v67.02h-87.12v33.51h107.23v73.72h-187.65v-281.48h187.65v73.72h-107.23Z"/>
        <path class="cls-2" d="M1021.24,403.29h80.42l40.21,113.93,38.12-113.93h82.52l-87.12,214.46h-67.02l-87.12-214.46Z"/>
        <path class="cls-2" d="M1481.99,530.62h-136.55c3.35,17.17,23.88,26.81,48.59,26.81,34.35,0,55.29-13.4,55.29-13.4l20.52,60.32s-30.16,20.11-83.35,20.11c-86.29,0-123.99-51.52-123.99-113.93s36.86-113.93,113.93-113.93c69.11,0,107.23,42.31,107.23,113.93,0,6.7-.84,13.4-1.68,20.11ZM1401.57,490.41c0-17.59-8.8-33.51-28.48-33.51-16.34,0-27.65,15.92-27.65,33.51h56.13Z"/>
        <path class="cls-2" d="M1507.12,339.62c0-23.88,19.27-43.56,43.56-43.56s43.56,19.69,43.56,43.56-19.69,43.56-43.56,43.56-43.56-19.69-43.56-43.56ZM1510.47,403.29h80.42v214.46h-80.42v-214.46Z"/>
      </g>
    </g>
  </g>
</svg>